# xmcd
#
# Track frame offsets:
#	150
#	13837
#	26537
#	38112
#	50212
#	60987
#	72087
#	83000
#	91900
#	104237
#	113350
#	125400
#	137250
#	148362
#	158350
#	167600
#	177300
#	193250
#	204925
#	216337
#
# Disc length: 3062 seconds
#
# Revision: 1
# Processed by: cddbd v1.5.1PL0 Copyright (c) Steve Scherf et al.
# Submitted via: audiograbber 1.83.01
#
DISCID=140bf414
DTITLE=Brenda Lee - Brenda Lee
DYEAR=1900
DGENRE=
TTITLE0=Weep no more my baby
TTITLE1=Emotions
TTITLE2=Let's jump the broomstick
TTITLE3=I'm sorry
TTITLE4=Sweet nothin's
TTITLE5=Fool nr 1
TTITLE6=Dum dum
TTITLE7=Dynamite
TTITLE8=All alone am i
TTITLE9=Ring a my phone
TTITLE10=Jambalaya
TTITLE11=Break it to me gently
TTITLE12=Heart in hand
TTITLE13=Baby face
TTITLE14=Love you till i die
TTITLE15=My baby likes western guys
TTITLE16=You can depend on me
TTITLE17=Kansas city
TTITLE18=Losing you
TTITLE19=I wonder
EXTD=
EXTT0=
EXTT1=
EXTT2=
EXTT3=
EXTT4=
EXTT5=
EXTT6=
EXTT7=
EXTT8=
EXTT9=
EXTT10=
EXTT11=
EXTT12=
EXTT13=
EXTT14=
EXTT15=
EXTT16=
EXTT17=
EXTT18=
EXTT19=
PLAYORDER=
